# xmcd
#
# Track frame offsets: 
#        150
#        17355
#        30865
#        44500
#        59030
#        77272
#        90655
#        105385
#        121005
#        135980
#
# Disc length: 1996 seconds
#
# Revision: 2
# Processed by: cddbd v1.4PL0 Copyright (c) Steve Scherf et al.
# Submitted via: ExactAudioCopy v0.90b3
#
DISCID=6607ca0a
DTITLE=T. Graham Brown - Greatest Hits
DYEAR=1900
DGENRE=Country
TTITLE0=R.F.D. 30529
TTITLE1=I Tell It Like It Used To Be
TTITLE2=I Wish That I Could Hurt That Way Again
TTITLE3=Hell And High Water
TTITLE4=Don't Go To Strangers
TTITLE5=Brilliant Conversationalist
TTITLE6=She Couldn't Love Me Anymore
TTITLE7=The Last Restort
TTITLE8=Darlene
TTITLE9=Come As You Were
EXTD=
EXTT0=Originally from Brillian Conversationalist\n
EXTT1=Originally from I Tell It Like It Used To \nBe\n
EXTT2=Originally from I Tell It Like It Used To \nBe\n
EXTT3=Originally from I Tell It Like It Used To \nBe\n
EXTT4=Originally from I Tell It Like It Used To \nBe\n
EXTT5=Originally from Brilliant Conversationalist\n
EXTT6=Originally from Brilliant Conversationalist\n
EXTT7=Originally from Brilliant Conversationalist\n
EXTT8=Originally from Come As You Were\n
EXTT9=Originally from Come As You Were\n
PLAYORDER=
